PathFileType	4	(X/Y/Z)	c:/Users/goper/Files/vsCode/490R/osim_files/C08/C08_Fast_02.trc
DataRate	CameraRate	NumFrames	NumMarkers	Units                	OrigDataRate	OrigDataStartFrame	OrigNumFrames
250.00	250.00	8	36	mm	250.0	1335	2135
                Frame#	Time	LPSIS			LASIS			LTH1			LTH2			LTH3			LTH4			LLFE			LMFE			LSH1			LSH2			LSH3			LSH4			LLMAL			LMMAL			LCAL			LMTP5			LTOE			LMTP1			RPSIS			RASIS			RTH1			RTH2			RTH3			RTH4			RLFE			RMFE			RSH1			RSH2			RSH3			RSH4			RLMAL			RMMAL			RCAL			RMTP1			RTOE			RMTP5		
		X1	Y1	Z1	X2	Y2	Z2	X3	Y3	Z3	X4	Y4	Z4	X5	Y5	Z5	X6	Y6	Z6	X7	Y7	Z7	X8	Y8	Z8	X9	Y9	Z9	X10	Y10	Z10	X11	Y11	Z11	X12	Y12	Z12	X13	Y13	Z13	X14	Y14	Z14	X15	Y15	Z15	X16	Y16	Z16	X17	Y17	Z17	X18	Y18	Z18	X19	Y19	Z19	X20	Y20	Z20	X21	Y21	Z21	X22	Y22	Z22	X23	Y23	Z23	X24	Y24	Z24	X25	Y25	Z25	X26	Y26	Z26	X27	Y27	Z27	X28	Y28	Z28	X29	Y29	Z29	X30	Y30	Z30	X31	Y31	Z31	X32	Y32	Z32	X33	Y33	Z33	X34	Y34	Z34	X35	Y35	Z35	X36	Y36	Z36

1335	5.33600	-2150.33545	1029.65405	233.75969	-2353.36304	986.69458	330.69403	-2205.38257	725.25012	395.33719	-2185.22876	653.41901	376.17856	-2165.80054	582.33423	364.64984	-2262.23462	641.74829	355.96124	-2149.68311	534.73517	355.79529	-2154.32471	524.13721	226.90393	-2056.11792	430.52573	364.36288	-2047.49219	384.09259	364.69061	-2114.81958	412.91138	362.76984	-2097.26196	370.43442	360.63406	-1969.58301	118.03002	302.82224	-1993.26160	125.03631	215.15526	-1900.39844	105.31200	248.38364	-2070.96289	41.58647	331.80453	-2133.65918	53.73306	271.75647	-2097.94067	43.45854	220.13684	-2152.41724	1023.04169	174.49260	-2352.02466	990.24005	92.54166	-2355.44116	730.70288	21.94499	-2385.42871	658.02411	35.77810	-2413.18774	581.41339	49.48198	-2453.84888	687.85480	61.80069	-2448.43384	525.69708	62.88548	-2456.56616	519.44458	191.61034	-2427.99683	430.99579	48.28327	-2450.77344	392.62381	41.60677	-2484.87622	455.31610	52.49379	-2499.83887	413.71011	45.18463	-2581.75781	113.76286	90.13504	-2611.91406	133.01770	172.85127	-2542.03784	67.43803	162.40747	-2747.56299	133.09727	150.01140	-2746.36060	156.68381	95.34059	-2711.69653	109.10888	40.09166
1336	5.34000	-2156.57373	1028.90149	233.17339	-2359.10376	986.42822	330.37131	-2210.39331	724.92474	395.16498	-2190.28369	653.08722	376.07025	-2170.82422	582.00317	364.59509	-2267.93311	641.24420	356.37744	-2154.53613	534.49292	355.76520	-2159.43311	523.79175	226.88371	-2060.19458	431.02271	364.44757	-2051.11914	384.72156	364.82394	-2118.74170	412.83069	362.85083	-2100.75269	370.53296	360.74536	-1970.70801	119.21954	303.16376	-1994.34009	126.10873	215.51012	-1901.31250	107.23642	248.79680	-2071.19141	41.55224	332.00266	-2133.80762	53.65213	271.75043	-2098.07812	43.51270	220.19173	-2156.96265	1022.86035	173.62354	-2358.72119	990.29059	91.99959	-2361.55151	730.49487	21.80111	-2392.12915	657.64734	36.73206	-2419.27637	581.19031	49.70653	-2459.41772	687.45337	61.56238	-2454.74805	525.42444	62.89860	-2463.18335	519.26776	191.53860	-2433.63940	430.58609	48.84756	-2455.95557	392.03156	42.02377	-2490.70825	454.47910	52.25185	-2505.43604	412.92572	45.20539	-2584.79175	110.47025	92.28365	-2616.46216	131.88400	173.46442	-2546.21851	66.59074	163.14172	-2751.92163	131.59932	150.45079	-2751.50659	154.96324	95.80522	-2716.18970	107.44191	40.49664
1337	5.34400	-2161.42090	1028.67627	232.44073	-2364.87207	986.02881	330.13669	-2215.92578	724.68903	394.93433	-2195.67944	652.85913	375.94473	-2176.14746	581.77203	364.54834	-2272.73535	640.71234	355.99286	-2159.58203	534.27832	355.71060	-2164.65259	523.44067	226.94269	-2064.41455	431.62305	364.43726	-2054.85693	385.42612	364.87732	-2122.78467	412.79828	362.88452	-2104.29956	370.63724	360.81717	-1971.81140	120.51122	303.45633	-1995.41992	127.22319	215.89209	-1902.16040	109.27326	249.14023	-2071.48730	41.52533	332.20288	-2133.92725	53.56564	271.79773	-2098.27051	43.56417	220.30820	-2163.55322	1022.03748	173.23047	-2364.66064	989.97784	91.71767	-2367.75146	730.34308	21.64614	-2398.45190	657.42609	36.65599	-2425.51611	581.07880	49.90577	-2465.64722	687.37726	61.25428	-2461.16064	525.17084	63.03965	-2470.08276	519.24884	191.57323	-2440.06372	429.69958	50.39464	-2461.47241	391.43823	42.31638	-2496.67432	453.80017	51.94451	-2511.22314	412.12759	45.19329	-2588.37305	109.15257	92.87612	-2620.23071	130.61334	173.99777	-2549.59375	65.71861	163.79781	-2755.68945	129.46216	150.96033	-2755.47070	152.76347	96.35925	-2719.39429	105.40542	41.34674
1338	5.34800	-2167.47754	1028.11914	231.95558	-2370.71729	985.85095	329.71140	-2221.42529	724.44238	394.69208	-2201.14624	652.58093	375.82101	-2181.47510	581.46210	364.46561	-2278.16943	640.24835	355.97055	-2164.67798	533.98566	355.61685	-2170.01196	523.07721	226.92337	-2068.90552	432.45987	365.18326	-2058.84155	386.09348	365.05533	-2126.90234	412.75058	362.92575	-2108.04810	370.74481	360.86731	-1972.99011	121.86187	303.82422	-1996.63977	128.40393	216.30446	-1903.22083	111.40993	249.60490	-2071.73389	41.51155	332.38373	-2134.10645	53.51536	271.84531	-2098.02148	43.30870	220.65442	-2170.26953	1021.25055	173.00934	-2370.63647	989.74719	91.38830	-2373.76611	730.23279	21.44308	-2404.63965	657.33148	36.64069	-2431.73975	580.96045	50.12733	-2471.91724	687.41235	61.00206	-2467.66016	525.02423	63.20195	-2477.05200	519.40369	191.55789	-2445.76270	429.40564	50.53278	-2466.90161	390.95230	42.50200	-2501.88672	452.79724	52.41468	-2516.80664	411.30319	45.32900	-2591.45044	107.88790	93.35439	-2623.32178	129.34488	175.04012	-2551.81372	65.42892	164.28239	-2758.85718	126.67754	151.61130	-2758.90015	150.12944	96.96986	-2722.82764	102.98540	41.75900
1339	5.35200	-2174.32593	1027.30872	231.73465	-2376.68921	985.90320	329.09586	-2226.90698	724.17682	394.38925	-2206.53833	652.22369	375.63229	-2186.82788	581.14044	364.36575	-2284.67163	640.66699	356.76508	-2169.58325	533.60822	355.78033	-2175.46924	522.66724	226.92796	-2073.51587	433.01678	365.21118	-2062.99829	386.83649	365.22757	-2131.22925	412.68167	362.98154	-2111.97485	370.87460	360.97400	-1974.26892	123.27047	304.23676	-1997.99646	129.61760	216.64171	-1904.40918	113.48959	249.84128	-2071.68408	40.97470	332.45468	-2134.23950	53.44727	271.88431	-2098.20166	43.36261	220.73003	-2175.59180	1021.00427	172.48578	-2376.69141	989.59540	90.98490	-2380.32983	730.06860	21.25100	-2411.01514	657.24640	36.54649	-2438.14478	580.93280	50.19342	-2478.75586	687.79681	60.59357	-2474.17188	524.93396	63.36623	-2484.06982	519.72504	191.51401	-2451.53149	429.13382	50.63268	-2472.28564	390.50894	42.65340	-2507.78076	452.10159	52.61898	-2522.35449	410.48145	45.53582	-2593.92480	106.66481	93.77190	-2626.09106	127.44283	175.03786	-2553.57031	65.48335	164.73822	-2761.37549	123.02569	152.41530	-2762.48755	146.85193	98.27634	-2725.20508	100.42918	42.56360
1340	5.35600	-2180.32251	1026.89746	231.28920	-2382.63794	985.72095	328.59979	-2232.51587	723.87915	394.06802	-2212.21606	651.94971	375.49741	-2192.35205	580.78424	364.26385	-2290.28833	640.19971	356.64996	-2175.33813	533.45941	355.39764	-2181.09497	522.21985	226.86026	-2078.16089	433.61151	365.05975	-2067.03833	387.40048	365.25131	-2135.57715	412.62088	362.99600	-2115.88867	370.98688	361.05539	-1975.55762	124.76651	304.61679	-1999.36230	130.87639	217.05830	-1905.62878	115.81492	250.32841	-2072.37524	41.64655	332.81317	-2134.34668	53.36032	271.93176	-2097.83472	42.82064	221.12230	-2182.68701	1020.20056	172.09665	-2381.90356	989.00513	90.94708	-2386.67432	729.96368	21.07893	-2417.46997	657.14264	36.42709	-2444.88672	581.14215	50.26960	-2485.09155	687.95203	60.42245	-2480.67822	524.86670	63.54145	-2491.07983	520.15125	191.38496	-2457.13477	428.50644	50.78573	-2477.63892	390.13950	42.77644	-2514.38330	452.13278	52.63081	-2527.81299	409.66193	45.76322	-2595.86353	105.71490	94.07624	-2628.38721	125.56100	175.68370	-2554.75439	65.49869	165.21474	-2763.51074	118.87156	153.28954	-2764.50537	143.10791	98.89343	-2726.91406	97.65517	43.39830
1341	5.36000	-2185.69336	1026.67664	230.58704	-2388.58813	985.37744	328.15479	-2238.22803	723.55670	393.73303	-2217.96436	651.59735	375.34177	-2197.85376	580.35864	364.12738	-2294.72290	639.28412	355.68301	-2181.23975	533.01624	355.51059	-2186.92529	521.72046	226.83350	-2082.98804	434.14023	365.04468	-2071.30908	388.03394	365.33252	-2140.19482	412.52808	363.04910	-2119.99585	371.12177	361.14426	-1977.04578	126.26959	305.00757	-2000.68665	132.19618	217.59833	-1906.80945	118.41164	251.02892	-2072.61157	41.57324	333.01849	-2134.52368	53.28759	271.97061	-2098.00366	42.85995	221.16901	-2188.68262	1019.84552	171.72476	-2388.96631	989.38190	90.02350	-2393.15112	729.83038	20.92334	-2424.06860	656.96210	36.30557	-2451.31274	581.14740	50.43761	-2491.03369	687.82526	60.47743	-2487.15845	524.78973	63.75019	-2498.10522	520.64374	191.28407	-2462.76514	428.41165	50.86002	-2482.92798	389.80713	42.94239	-2520.21997	451.19086	52.60091	-2533.07520	408.84286	46.17241	-2597.16846	104.68197	94.49578	-2630.18457	123.65839	176.39024	-2555.68262	65.29591	165.75714	-2765.35913	114.48592	154.16037	-2766.82349	138.98975	99.93240	-2728.28125	94.69125	44.17029
1342	5.36400	-2192.64868	1025.98889	230.44438	-2394.64941	985.17944	327.60645	-2243.81592	723.19690	393.32687	-2223.77368	651.20081	375.11319	-2203.96240	579.99304	363.99521	-2300.60962	638.81830	355.54907	-2186.24512	532.80798	355.23520	-2192.86963	521.19379	226.73961	-2087.90259	434.61566	365.05807	-2075.81494	388.74167	365.46347	-2144.95410	412.40753	363.05331	-2124.36035	371.20563	361.25772	-1978.49658	127.84513	305.35977	-2002.35864	133.52193	217.99132	-1908.20020	120.94186	251.54503	-2072.97217	41.62170	333.23450	-2134.73730	53.26358	272.01306	-2098.29712	42.92097	221.24651	-2194.95483	1019.41650	171.32021	-2394.53589	989.26587	89.27279	-2399.53735	729.60999	20.70213	-2430.67578	656.89154	36.26968	-2457.99316	581.11395	50.68481	-2497.52222	687.98181	60.38920	-2493.60547	524.70197	63.96423	-2505.02612	521.13879	191.13994	-2468.45679	428.71249	51.02861	-2488.11890	389.49680	43.08670	-2525.68896	449.94504	53.32637	-2538.58228	408.01328	46.44405	-2599.27002	105.35851	93.37335	-2631.47437	121.44473	176.96542	-2556.54590	65.00301	166.31932	-2767.01807	110.19691	155.05482	-2768.68188	134.73534	100.88388	-2729.64893	91.50862	44.79691
